# xmcd
#
# Track frame offsets:
#	150
#	19773
#	35509
#	52145
#	65003
#	77200
#	88691
#	98385
#	111750
#	131427
#	144892
#	158236
#	169796
#	183313
#	192172
#	206509
#
# Disc length: 2929 seconds
#
# Revision: 0
# Processed by: cddbd v1.5.2PL0 Copyright (c) Steve Scherf et al.
# Submitted via: EasyCDDAExtractor 12.0.4.1
#
DISCID=d30b6f10
DTITLE=Mario Lnaza - O Sole Mio
DYEAR=2002
DGENRE=Ballad
TTITLE0=O Sole Mio
TTITLE1=I'm Falling in Love With someone
TTITLE2=My Song, My love
TTITLE3=DIANE
TTITLE4=SANTA LUCIA
TTITLE5=THINE ALONE
TTITLE6=THE ROSARY
TTITLE7=IF
TTITLE8=THEY DIDN'T BELIEVE ME
TTITLE9=YOUR EYES HAVE TOLD ME SO
TTITLE10=TELL ME THAT YOU LOVE ME
TTITLE11=DEEP IN MY HEART, DEAR
TTITLE12=THE LORD'S PRAYER
TTITLE13=FUNICULI FUNICULA
TTITLE14=YOU ARE LOVE
TTITLE15=SOMEDAY I'LL FIND YOU
EXTD=
EXTT0=
EXTT1=
EXTT2=
EXTT3=
EXTT4=
EXTT5=
EXTT6=
EXTT7=
EXTT8=
EXTT9=
EXTT10=
EXTT11=
EXTT12=
EXTT13=
EXTT14=
EXTT15=
PLAYORDER=
